{"title":"Words and Pictures 2013 LIMITED BRRip XviD titler","uid":10778127,"size":1278913249,"categoryP":"video","categoryS":"movies","magnet":"?xt=urn:btih:6c296f9a9eece7e2c5907c4cf7194bc904094b87&amp;dn=Words+and+Pictures+2013+LIMITED+BRRip+XviD+titler&amp;tr=udp%3A%2F%2Ftracker.openbittorrent.com%3A80&amp;tr=udp%3A%2F%2Fopen.demonii.com%3A1337&amp;tr=udp%3A%2F%2Ftracker.coppersurfer.tk%3A6969&amp;tr=udp%3A%2F%2Fexodus.desync.com%3A6969","seeders":2,"leechers":0,"uploader":"movieZ.freak","files":4,"time":1408136313,"description":"SOURCE: Words and Pictures 2013 LIMITED 720p BluRay x264 - GECKOS\n\n\n\n &lt;a href=&quot;\nhttp://www.imdb.com/title/tt2380331/&quot; rel=&quot;nofollow&quot; target=&quot;_NEW&quot;&gt;\nhttp://www.imdb.com/title/tt2380331/&lt;/a&gt;\n\n\n\n &lt;a href=&quot;\nhttp://www.rottentomatoes.com/m/words_and_pictures/&quot; rel=&quot;nofollow&quot; target=&quot;_NEW&quot;&gt;\nhttp://www.rottentomatoes.com/m/words_and_pictures/&lt;/a&gt;\n\n\n\n &lt;a href=&quot;\nhttp://en.wikipedia.org/wiki/Words_and_Pictures_%28film%29&quot; rel=&quot;nofollow&quot; target=&quot;_NEW&quot;&gt;\nhttp://en.wikipedia.org/wiki/Words_and_Pictures_%28film%29&lt;/a&gt;\n\n\n\n\n- SAMPLE: Yes\n\n\n- SUBTITLE: English\n\n\n- LANGUAGE / AUDIO: English\n\n\n\n\n\nSCREENSHOTS:\n-------------------    &lt;a href=&quot;\nhttp://someimage.com/urjY&quot; rel=&quot;nofollow&quot; target=&quot;_NEW&quot;&gt;\nhttp://someimage.com/urjY&lt;/a&gt;\n\n\n\n\nDIRECTOR: Fred Schepisi\n\n\n\n\nCAST: Clive Owen, Juliette Binoche, Valerie Tian, Bruce Davison, Amy Brenneman, Josh Ssettuba, Navid Negahban,...\n\n\n\nPLOT:\n-----------\nA witty romantic drama, WORDS &amp; PICTURES stars the engaging duo of Juliette Binoche and Clive Owen working together on-screen for the first time. Prep school English teacher Jack Marcus (OWEN) laments his students' obsession with social media and good grades rather than engaging with the power of the written word. A one-time literary star, Jack has not published in years filling his spare time with drink versus the art of language. He meets his match in Dina Delsanto (BINOCHE) - an abstract painter and new teacher on campus, who was once celebrated for her art. From the start, the two flirt and provoke each other with equal relish.\n\n\n************************************\n\n- Duration: 1h 55mn\n\n- Bit rate: 1315 Kbps\n\n- Res: 720 x 302\n\n- AR: 2.40:1\n\n- FPS: 23.976 fps\n\n- Audio: MP3, 2 channels, 128Kbps\n\n************************************\n\n\nGeneral\n--------------\nFormat : AVI\nFormat/Info : Audio Video Interleave\nFile size : 1.17 GiB\nDuration : 1h 55mn\nOverall bit rate : 1452 Kbps\nWriting library : VirtualDub build 35491/release\n\n\nVideo\n-----------\nFormat : MPEG-4 Visual\nFormat profile : Advanced Simple@L5\nFormat settings, BVOP : 2\nFormat settings, QPel : No\nFormat settings, GMC : No warppoints\nFormat settings, Matrix : Default (H.263)\nCodec ID : XVID\nCodec ID/Hint : XviD\nDuration : 1h 55mn\nBit rate : 1315 Kbps\nWidth : 720 pixels\nHeight : 302 pixels\nDisplay aspect ratio : 2.40:1\nFrame rate : 23.976 fps\nColor space : YUV\nChroma subsampling : 4:2:0\nBit depth : 8 bits\nScan type : Progressive\nCompression mode : Lossy\nBits/(Pixel*Frame) : 0.252\nStream size : 1.06 GiB (91%)\nWriting library : XviD 65\n\n\nAudio\n-------------\nFormat : MPEG Audio\nFormat version : Version 1\nFormat profile : Layer 3\nMode : Joint stereo\nMode extension : MS Stereo\nCodec ID : 55\nCodec ID/Hint : MP3\nDuration : 1h 55mn\nBit rate mode : Constant\nBit rate : 128 Kbps\nChannel(s) : 2 channels\nSampling rate : 48.0 KHz\nCompression mode : Lossy\nStream size : 106 MiB (9%)\nAlignment : Split accross interleaves\nInterleave, duration : 42 ms (1.00 video frame)\nInterleave, preload duration : 500 ms\nWriting library : LAME3.99r","torrent":{"xt":"urn:btih:6c296f9a9eece7e2c5907c4cf7194bc904094b87","amp;dn":"Words+and+Pictures+2013+LIMITED+BRRip+XviD+titler","amp;tr":["udp%3A%2F%2Ftracker.openbittorrent.com%3A80","udp%3A%2F%2Fopen.demonii.com%3A1337","udp%3A%2F%2Ftracker.coppersurfer.tk%3A6969","udp%3A%2F%2Fexodus.desync.com%3A6969"],"infoHash":"6c296f9a9eece7e2c5907c4cf7194bc904094b87","infoHashBuffer":{"type":"Buffer","data":[108,41,111,154,158,236,231,226,197,144,124,76,247,25,75,201,4,9,75,135]},"announce":[],"urlList":[]}}